HIERARCHY
ROOT root
{
	OFFSET	0	13.1	24.9
	CHANNELS 6  Xposition Yposition Zposition Xrotation Yrotation Zrotation
	JOINT spine_1
	{
		OFFSET	0	9.99999	0
		CHANNELS 3  Xrotation Yrotation Zrotation
		JOINT spine_2
		{
			OFFSET	0	112	-10
			CHANNELS 3  Xrotation Yrotation Zrotation
			JOINT spine_3
			{
				OFFSET	0	206.5	19.3
				CHANNELS 3  Xrotation Yrotation Zrotation
				JOINT spine_4
				{
					OFFSET	0	110.4	14.6
					CHANNELS 3  Xrotation Yrotation Zrotation
					JOINT neck_1
					{
						OFFSET	0	71.8	-50.3
						CHANNELS 3  Xrotation Yrotation Zrotation
						JOINT neck_2
						{
							OFFSET	0	86.2	-25.8
							CHANNELS 3  Xrotation Yrotation Zrotation
							JOINT head_ee
							{
								OFFSET	0	179.8	-8.7
								CHANNELS 3  Xrotation Yrotation Zrotation
								End Site
								{
									OFFSET	1	0	0
								}
							}
						}
					}
					JOINT left_clavicle
					{
						OFFSET	-43.2	22.4	-70.8
						CHANNELS 3  Xrotation Yrotation Zrotation
						JOINT left_shoulder
						{
							OFFSET	-93.9	-5.79999	48.7
							CHANNELS 3  Xrotation Yrotation Zrotation
							JOINT left_elbow
							{
								OFFSET	-291.4	-30.8	15.2
								CHANNELS 3  Xrotation Yrotation Zrotation
								JOINT left_lowarm_twist
								{
									OFFSET	-110.7	-3.89999	13.6
									CHANNELS 3  Xrotation Yrotation Zrotation
									JOINT left_hand
									{
										OFFSET	-110.7	-3.89999	13.6
										CHANNELS 3  Xrotation Yrotation Zrotation
										JOINT left_ee
										{
											OFFSET	-80.8	-5.10001	12.1
											CHANNELS 3  Xrotation Yrotation Zrotation
											End Site
											{
												OFFSET	1	0	0
											}
										}
									}
								}
							}
						}
					}
					JOINT right_clavicle
					{
						OFFSET	43.2	22.4	-70.8
						CHANNELS 3  Xrotation Yrotation Zrotation
						JOINT right_shoulder
						{
							OFFSET	93.9	-5.79999	48.7
							CHANNELS 3  Xrotation Yrotation Zrotation
							JOINT right_elbow
							{
								OFFSET	291.4	-30.8	15.2
								CHANNELS 3  Xrotation Yrotation Zrotation
								JOINT right_lowarm_twist
								{
									OFFSET	110.7	-3.89999	13.6
									CHANNELS 3  Xrotation Yrotation Zrotation
									JOINT right_hand
									{
										OFFSET	110.7	-3.89999	13.6
										CHANNELS 3  Xrotation Yrotation Zrotation
										JOINT right_ee
										{
											OFFSET	80.8	-5.10001	12.1
											CHANNELS 3  Xrotation Yrotation Zrotation
											End Site
											{
												OFFSET	1	0	0
											}
										}
									}
								}
							}
						}
					}
				}
			}
		}
	}
	JOINT left_hip
	{
		OFFSET	-82.8	-127.5	0.300001
		CHANNELS 3  Xrotation Yrotation Zrotation
		JOINT left_knee
		{
			OFFSET	-28.2	-396.7	2.2
			CHANNELS 3  Xrotation Yrotation Zrotation
			JOINT left_ankle
			{
				OFFSET	-11.7	-411.3	35.4
				CHANNELS 3  Xrotation Yrotation Zrotation
				JOINT left_toes
				{
					OFFSET	0	-60	-88.6
					CHANNELS 3  Xrotation Yrotation Zrotation
					JOINT left_foot_ee
					{
						OFFSET	-22.5	-16.5	-42.2
						CHANNELS 3  Xrotation Yrotation Zrotation
						End Site
						{
							OFFSET	1	0	0
						}
					}
				}
			}
		}
	}
	JOINT right_hip
	{
		OFFSET	82.8	-127.5	0.300001
		CHANNELS 3  Xrotation Yrotation Zrotation
		JOINT right_knee
		{
			OFFSET	28.2	-396.7	2.2
			CHANNELS 3  Xrotation Yrotation Zrotation
			JOINT right_ankle
			{
				OFFSET	11.7	-411.3	35.4
				CHANNELS 3  Xrotation Yrotation Zrotation
				JOINT right_toes
				{
					OFFSET	0	-60	-88.6
					CHANNELS 3  Xrotation Yrotation Zrotation
					JOINT right_foot_ee
					{
						OFFSET	22.5	-16.5	-42.2
						CHANNELS 3  Xrotation Yrotation Zrotation
						End Site
						{
							OFFSET	1	0	0
						}
					}
				}
			}
		}
	}
}
MOTION
Frames: 14
Frame Time: 0.02
3574.42 741.953 -1474.73 174.34247466 87.9812448626 -175.162849839 -0.351822 0.514848 -0.119733 -0.351965 0.521424 -0.0867287 -0.352857 0.527842 0.0280527 -0.352473 0.525648 -0.0556646 -6.93426 13.633 6.21907 -6.8462 20.8748 8.94954 -0.0 0.0 -0.0 0.758899 24.8833 3.87503 -2.38725 -12.0616 71.3927 1.68071 -39.7767 0.608062 10.3121 0.247617 -1.29223 1.0322 -1.90327 6.13153 -0.0 0.0 -0.0 8.76525 20.0002 -16.6557 -11.1161 27.8478 -62.2235 0.397426 11.1378 -0.0387502 6.39787 -0.181083 0.796758 1.33031 -29.02 -18.8097 0.0 0.0 0.0 -5.25007 24.0662 3.64478 -0.578332 0.0233811 0.0856714 24.1024 20.4421 -3.32003 -6.52645 0.0 0.0 -0.0 0.0 -0.0 19.3789 38.9917 -11.0415 -31.867 0.0319624 -4.82786 37.9521 3.57806 4.73127 -29.9105 0.0 0.0 0.0 0.0 0.0 
3574.42 741.953 -1474.73 172.758966819 88.4212060635 -173.578573087 -0.351822 0.514848 -0.119733 -0.351965 0.521424 -0.0867287 -0.352857 0.527842 0.0280527 -0.352473 0.525648 -0.0556646 -6.93426 13.633 6.21907 -6.8462 20.8748 8.94954 -0.0 0.0 -0.0 0.758899 24.8833 3.87503 -2.38725 -12.0616 71.3927 1.68071 -39.7767 0.608062 10.3121 0.247617 -1.29223 1.0322 -1.90327 6.13153 -0.0 0.0 -0.0 8.76525 20.0002 -16.6557 -11.1161 27.8478 -62.2235 0.397426 11.1378 -0.0387502 6.39787 -0.181083 0.796758 1.33031 -29.02 -18.8097 0.0 0.0 0.0 -5.25007 24.0662 3.64478 -0.578332 0.0233811 0.0856714 24.1024 20.4421 -3.32003 -6.52645 0.0 0.0 -0.0 0.0 -0.0 19.3789 38.9917 -11.0415 -31.867 0.0319624 -4.82786 37.9521 3.57806 4.73127 -29.9105 0.0 0.0 0.0 0.0 0.0 
3574.42 741.953 -1474.73 169.439529562 88.9142775419 -170.258269491 -0.351822 0.514848 -0.119733 -0.351965 0.521424 -0.0867287 -0.352857 0.527842 0.0280527 -0.352473 0.525648 -0.0556646 -6.93426 13.633 6.21907 -6.8462 20.8748 8.94954 -0.0 0.0 -0.0 0.758899 24.8833 3.87503 -2.38725 -12.0616 71.3927 1.68071 -39.7767 0.608062 10.3121 0.247617 -1.29223 1.0322 -1.90327 6.13153 -0.0 0.0 -0.0 8.76525 20.0002 -16.6557 -11.1161 27.8478 -62.2235 0.397426 11.1378 -0.0387502 6.39787 -0.181083 0.796758 1.33031 -29.02 -18.8097 0.0 0.0 0.0 -5.25007 24.0662 3.64478 -0.578332 0.0233811 0.0856714 24.1024 20.4421 -3.32003 -6.52645 0.0 0.0 -0.0 0.0 -0.0 19.3789 38.9917 -11.0415 -31.867 0.0319624 -4.82786 37.9521 3.57806 4.73127 -29.9105 0.0 0.0 0.0 0.0 0.0 
3574.42 741.953 -1474.73 70.3724983578 89.7887534742 -71.1892617397 -0.351822 0.514848 -0.119733 -0.351965 0.521424 -0.0867287 -0.352857 0.527842 0.0280527 -0.352473 0.525648 -0.0556646 -6.93426 13.633 6.21907 -6.8462 20.8748 8.94954 -0.0 0.0 -0.0 0.758899 24.8833 3.87503 -2.38725 -12.0616 71.3927 1.68071 -39.7767 0.608062 10.3121 0.247617 -1.29223 1.0322 -1.90327 6.13153 -0.0 0.0 -0.0 8.76525 20.0002 -16.6557 -11.1161 27.8478 -62.2235 0.397426 11.1378 -0.0387502 6.39787 -0.181083 0.796758 1.33031 -29.02 -18.8097 0.0 0.0 0.0 -5.25007 24.0662 3.64478 -0.578332 0.0233811 0.0856714 24.1024 20.4421 -3.32003 -6.52645 0.0 0.0 -0.0 0.0 -0.0 19.3789 38.9917 -11.0415 -31.867 0.0319624 -4.82786 37.9521 3.57806 4.73127 -29.9105 0.0 0.0 0.0 0.0 0.0 
3574.42 741.953 -1474.73 11.0673476153 88.9634302602 -11.8824677665 -0.351822 0.514848 -0.119733 -0.351965 0.521424 -0.0867287 -0.352857 0.527842 0.0280527 -0.352473 0.525648 -0.0556646 -6.93426 13.633 6.21907 -6.8462 20.8748 8.94954 -0.0 0.0 -0.0 0.758899 24.8833 3.87503 -2.38725 -12.0616 71.3927 1.68071 -39.7767 0.608062 10.3121 0.247617 -1.29223 1.0322 -1.90327 6.13153 -0.0 0.0 -0.0 8.76525 20.0002 -16.6557 -11.1161 27.8478 -62.2235 0.397426 11.1378 -0.0387502 6.39787 -0.181083 0.796758 1.33031 -29.02 -18.8097 0.0 0.0 0.0 -5.25007 24.0662 3.64478 -0.578332 0.0233811 0.0856714 24.1024 20.4421 -3.32003 -6.52645 0.0 0.0 -0.0 0.0 -0.0 19.3789 38.9917 -11.0415 -31.867 0.0319624 -4.82786 37.9521 3.57806 4.73127 -29.9105 0.0 0.0 0.0 0.0 0.0 
3574.42 741.953 -1474.73 4.98810342159 87.7110139191 -5.80103001794 -0.351822 0.514848 -0.119733 -0.351965 0.521424 -0.0867287 -0.352857 0.527842 0.0280527 -0.352473 0.525648 -0.0556646 -6.93426 13.633 6.21907 -6.8462 20.8748 8.94954 -0.0 0.0 -0.0 0.758899 24.8833 3.87503 -2.38725 -12.0616 71.3927 1.68071 -39.7767 0.608062 10.3121 0.247617 -1.29223 1.0322 -1.90327 6.13153 -0.0 0.0 -0.0 8.76525 20.0002 -16.6557 -11.1161 27.8478 -62.2235 0.397426 11.1378 -0.0387502 6.39787 -0.181083 0.796758 1.33031 -29.02 -18.8097 0.0 0.0 0.0 -5.25007 24.0662 3.64478 -0.578332 0.0233811 0.0856714 24.1024 20.4421 -3.32003 -6.52645 0.0 0.0 -0.0 0.0 -0.0 19.3789 38.9917 -11.0415 -31.867 0.0319624 -4.82786 37.9521 3.57806 4.73127 -29.9105 0.0 0.0 0.0 0.0 0.0 
3574.42 741.953 -1474.73 3.10672709887 86.326147686 -3.9172417246 -0.351822 0.514848 -0.119733 -0.351965 0.521424 -0.0867287 -0.352857 0.527842 0.0280527 -0.352473 0.525648 -0.0556646 -6.93426 13.633 6.21907 -6.8462 20.8748 8.94954 -0.0 0.0 -0.0 0.758899 24.8833 3.87503 -2.38725 -12.0616 71.3927 1.68071 -39.7767 0.608062 10.3121 0.247617 -1.29223 1.0322 -1.90327 6.13153 -0.0 0.0 -0.0 8.76525 20.0002 -16.6557 -11.1161 27.8478 -62.2235 0.397426 11.1378 -0.0387502 6.39787 -0.181083 0.796758 1.33031 -29.02 -18.8097 0.0 0.0 0.0 -5.25007 24.0662 3.64478 -0.578332 0.0233811 0.0856714 24.1024 20.4421 -3.32003 -6.52645 0.0 0.0 -0.0 0.0 -0.0 19.3789 38.9917 -11.0415 -31.867 0.0319624 -4.82786 37.9521 3.57806 4.73127 -29.9105 0.0 0.0 0.0 0.0 0.0 
3574.42 741.953 -1474.73 2.03135126572 84.3776549755 -2.83847369825 -0.351822 0.514848 -0.119733 -0.351965 0.521424 -0.0867287 -0.352857 0.527842 0.0280527 -0.352473 0.525648 -0.0556646 -6.93426 13.633 6.21907 -6.8462 20.8748 8.94954 -0.0 0.0 -0.0 0.758899 24.8833 3.87503 -2.38725 -12.0616 71.3927 1.68071 -39.7767 0.608062 10.3121 0.247617 -1.29223 1.0322 -1.90327 6.13153 -0.0 0.0 -0.0 8.76525 20.0002 -16.6557 -11.1161 27.8478 -62.2235 0.397426 11.1378 -0.0387502 6.39787 -0.181083 0.796758 1.33031 -29.02 -18.8097 0.0 0.0 0.0 -5.25007 24.0662 3.64478 -0.578332 0.0233811 0.0856714 24.1024 20.4421 -3.32003 -6.52645 0.0 0.0 -0.0 0.0 -0.0 19.3789 38.9917 -11.0415 -31.867 0.0319624 -4.82786 37.9521 3.57806 4.73127 -29.9105 0.0 0.0 0.0 0.0 0.0 
3574.42 741.953 -1474.73 1.41403279123 81.9101043577 -2.21685325124 -0.351822 0.514848 -0.119733 -0.351965 0.521424 -0.0867287 -0.352857 0.527842 0.0280527 -0.352473 0.525648 -0.0556646 -6.93426 13.633 6.21907 -6.8462 20.8748 8.94954 -0.0 0.0 -0.0 0.758899 24.8833 3.87503 -2.38725 -12.0616 71.3927 1.68071 -39.7767 0.608062 10.3121 0.247617 -1.29223 1.0322 -1.90327 6.13153 -0.0 0.0 -0.0 8.76525 20.0002 -16.6557 -11.1161 27.8478 -62.2235 0.397426 11.1378 -0.0387502 6.39787 -0.181083 0.796758 1.33031 -29.02 -18.8097 0.0 0.0 0.0 -5.25007 24.0662 3.64478 -0.578332 0.0233811 0.0856714 24.1024 20.4421 -3.32003 -6.52645 0.0 0.0 -0.0 0.0 -0.0 19.3789 38.9917 -11.0415 -31.867 0.0319624 -4.82786 37.9521 3.57806 4.73127 -29.9105 0.0 0.0 0.0 0.0 0.0 
3568.85037475 741.934 -1479.04786228 -0.874821378618 81.8116288249 0.259229848675 -0.268911 0.626946 -0.17384 -0.26912 0.636737 -0.133592 -0.27076 0.650569 0.0062991 -0.270182 0.643399 -0.0965295 -6.33819 13.7248 6.14297 -6.22796 20.9718 8.79947 -0.0 0.0 -0.0 0.637384 24.3142 3.66306 -3.77495 -12.5444 71.0429 1.57346 -37.9317 0.540767 10.299 0.247452 -1.29057 1.02599 -1.44682 6.27739 -0.0 0.0 -0.0 9.20627 21.8828 -17.4842 -10.8407 28.0745 -61.6231 0.41319 11.5678 -0.0418533 6.44409 -0.182066 0.802581 1.29886 -28.7407 -18.5549 0.0 0.0 0.0 -4.829 23.7007 3.39869 -0.163431 0.00669503 0.0241865 24.012 20.5577 -3.31061 -6.81837 0.0 0.0 -0.0 0.0 -0.0 19.9333 39.9385 -12.4204 -32.332 0.0522962 -4.8963 38.7102 4.32186 4.80909 -29.7113 0.0 0.0 0.0 0.0 0.0 
3569.22489663 741.934 -1479.49188629 -0.557590742952 77.0879795124 -0.0631816825306 -0.268911 0.626946 -0.17384 -0.26912 0.636737 -0.133592 -0.27076 0.650569 0.0062991 -0.270182 0.643399 -0.0965295 -6.33819 13.7248 6.14297 -6.22796 20.9718 8.79947 -0.0 0.0 -0.0 0.637384 24.3142 3.66306 -3.77495 -12.5444 71.0429 1.57346 -37.9317 0.540767 10.299 0.247452 -1.29057 1.02599 -1.44682 6.27739 -0.0 0.0 -0.0 9.20627 21.8828 -17.4842 -10.8407 28.0745 -61.6231 0.41319 11.5678 -0.0418533 6.44409 -0.182066 0.802581 1.29886 -28.7407 -18.5549 0.0 0.0 0.0 -4.829 23.7007 3.39869 -0.163431 0.00669503 0.0241865 24.012 20.5577 -3.31061 -6.81837 0.0 0.0 -0.0 0.0 -0.0 19.9333 39.9385 -12.4204 -32.332 0.0522962 -4.8963 38.7102 4.32186 4.80909 -29.7113 0.0 0.0 0.0 0.0 0.0 
3563.18139572 744.366 -1480.06992564 1.13394316516 76.4499622921 -1.70034110535 -0.224333 0.719768 -0.0428903 -0.224622 0.721038 0.00299969 -0.224727 0.703693 0.157235 -0.224039 0.719693 0.0441209 -8.23446 10.7435 5.24819 -8.20436 16.4062 7.55986 -0.0 0.0 -0.0 0.868056 23.6455 3.91758 -4.9433 -11.9607 71.29 1.31112 -33.0017 0.388407 10.8821 0.254476 -1.36471 0.455822 0.945922 3.43636 -0.0 0.0 -0.0 9.62343 25.775 -18.0465 -9.73872 27.9116 -61.4831 0.369151 10.3632 -0.0334758 7.88135 -0.210283 0.984004 1.49945 -28.6391 -19.6895 0.0 0.0 0.0 -4.73337 22.9908 3.09472 -1.38678 0.054612 0.20581 22.6441 21.9081 -3.16068 -6.92695 0.0 0.0 -0.0 0.0 -0.0 18.1177 33.7155 -10.7223 -33.0338 0.0840422 -4.99931 38.4276 0.465217 4.74171 -29.1183 0.0 0.0 0.0 0.0 0.0 
3556.24436089 745.67 -1481.01802988 5.71366573371 77.2913395483 -6.47976208605 -0.372028 0.729538 0.130248 -0.372307 0.719771 0.176408 -0.370168 0.664522 0.328031 -0.369618 0.707988 0.218961 -9.72718 9.38401 5.00354 -9.72196 14.2572 7.1786 -0.0 0.0 -0.0 0.743162 23.3846 3.72448 -6.01895 -12.7075 71.1909 1.19247 -30.5698 0.325897 10.9042 0.254728 -1.36753 0.321063 1.7099 2.85372 -0.0 0.0 -0.0 10.0732 27.9907 -18.8037 -8.25126 28.1045 -60.607 0.337679 9.4965 -0.0280487 8.83439 -0.22648 1.10467 1.50427 -28.4083 -19.6587 0.0 0.0 0.0 -3.83146 22.3997 2.87126 -4.36458 0.154936 0.651752 24.6526 22.7516 -3.42338 -7.13109 0.0 0.0 -0.0 0.0 -0.0 15.6722 33.9016 -10.1326 -33.2325 0.0932581 -5.0284 38.6303 0.64287 4.76124 -29.1372 0.0 0.0 0.0 0.0 0.0 
3548.55896031 745.261 -1480.89590069 11.0768543445 79.7597937338 -12.3418209822 -0.277318 0.800943 0.260756 -0.277621 0.782728 0.311197 -0.273388 0.697617 0.472061 -0.272885 0.763414 0.355957 -9.07405 7.97386 1.48594 -9.11269 13.934 3.33656 -0.0 0.0 -0.0 0.771057 23.8177 3.80012 -7.60591 -13.0157 70.9831 1.09544 -28.4856 0.278067 11.079 0.256678 -1.38977 -0.0977037 2.24295 0.294204 -0.0 0.0 -0.0 10.0134 29.0033 -18.5479 -6.57905 28.6235 -59.8083 0.300411 8.46452 -0.0222309 9.5611 -0.237479 1.19684 1.53864 -28.4724 -19.8756 0.0 0.0 0.0 -3.76878 19.1104 3.29742 -7.62225 0.23797 1.14472 28.6113 22.3275 -3.88835 -5.73703 0.0 0.0 -0.0 0.0 -0.0 12.7686 28.1983 -7.64449 -33.7461 0.117549 -5.10346 39.5853 -1.43592 4.83108 -28.4404 0.0 0.0 0.0 0.0 0.0 
